# xmcd
#
# Track frame offsets: 
#        150
#        15865
#        33693
#        55964
#        78972
#        98813
#        115603
#        129294
#        169354
#        186083
#        199889
#        224254
#        255313
#
# Disc length: 3590 seconds
#
# Revision: 3
# Processed by: cddbd v1.5.2PL0 Copyright (c) Steve Scherf et al.
# Submitted via: ExactAudioCopy v1.0b2
#
DISCID=a60e040d
DTITLE=Julian Sas - For the Lost and Found
DYEAR=2000
DGENRE=Rock
TTITLE0=This Time, My Time
TTITLE1=I Ain' t Afraid
TTITLE2=Working Man's Blues
TTITLE3=High And Low
TTITLE4=Direction Blues
TTITLE5=Make My Water
TTITLE6=Spellbound Woman
TTITLE7=Blues For J
TTITLE8=Don't Tell Me No Lies
TTITLE9=Life's Devil Ride
TTITLE10=Driftin' Boogie
TTITLE11=Blues For The Lost And Found
TTITLE12=Restless Heart
EXTD=
EXTT0=
EXTT1=
EXTT2=
EXTT3=
EXTT4=
EXTT5=
EXTT6=
EXTT7=
EXTT8=
EXTT9=
EXTT10=
EXTT11=
EXTT12=
PLAYORDER=
